<svg xmlns="http://www.w3.org/2000/svg" width="36" height="36" viewBox="0 0 36 36"><g transform="translate(0 -1016.362)"><rect style="isolation:auto;mix-blend-mode:normal" width="36" height="36" y="1016.362" fill="#f05542" color="#000" opacity=".97" overflow="visible" rx="3" ry="3"/><g transform="translate(1.459 -1.5)"><path style="isolation:auto;mix-blend-mode:normal" d="m 3.491535,1027.8622 0,14.9668 -1.9999999,0 c 0,1.1268 0.9064472,2.0332 2.033203,2.0332 l 23.9492189,0 c 1.126757,0 2.035156,-0.9064 2.035156,-2.0332 l -2.017578,0 0,-14.9668 -24,0 z" color="#000" opacity=".15" overflow="visible"/><rect style="isolation:auto;mix-blend-mode:normal" width="24" height="15" x="4.492" y="1027.862" fill="#2b4255" color="#000" overflow="visible"/><rect width="21.923" height="12.846" x="5.53" y="1029.016" fill="#4bbfeb" color="#000" overflow="visible" style="isolation:auto;mix-blend-mode:normal"/><path fill="#576d7e" style="isolation:auto;mix-blend-mode:normal" d="m 30.508463,1042.8283 c 0,1.1268 -0.907099,2.0339 -2.033856,2.0339 l -23.9492168,0 c -1.1267558,0 -2.0338552,-0.9071 -2.0338552,-2.0339 z" color="#000" overflow="visible"/><path fill="#cad1d8" d="m 19.153845,1042.8283 c 0,0.5157 -0.415122,0.9307 -0.930769,0.9307 l -3.446154,0 c -0.515647,0 -0.930769,-0.415 -0.930769,-0.9307" color="#000" overflow="visible" style="isolation:auto;mix-blend-mode:normal"/><path style="isolation:auto;mix-blend-mode:normal" d="m 28,1033.3622 c 1.4272,0 2.7454,0.764 3.459,2 l -3.4532,0 -1,2 1,2 3.4531,0 c -0.7136,1.2361 -2.0317,1.9982 -3.4589,2 -1.4768,0 -2.7525,-0.8094 -3.4453,-2 l -17.1094,0 c -0.6929,1.1906 -1.9685,2 -3.4453,2 -1.4272,0 -2.7454,-0.764 -3.459,-2 l 3.4531,0 1,-2 -1,-2 -3.4531,0 c 0.7136,-1.236 2.0317,-2 3.4589,-2 1.4769,0 2.7525,0.8094 3.4454,2 l 17.1094,0 c 0.6928,-1.1906 1.9684,-2 3.4453,-2 z" color="#000" opacity=".16" overflow="visible"/><path fill="#f8b74e" fill-opacity=".976" d="m 28,1032.3622 c 1.4272,0 2.7454,0.764 3.459,2 l -3.4532,0 -1,2 1,2 3.4531,0 c -0.7136,1.2361 -2.0317,1.9982 -3.4589,2 -1.4768,0 -2.7525,-0.8094 -3.4453,-2 l -17.1094,0 c -0.6929,1.1906 -1.9685,2 -3.4453,2 -1.4272,0 -2.7454,-0.764 -3.459,-2 l 3.4531,0 1,-2 -1,-2 -3.4531,0 c 0.7136,-1.236 2.0317,-2 3.4589,-2 1.4769,0 2.7525,0.8094 3.4454,2 l 17.1094,0 c 0.6928,-1.1906 1.9684,-2 3.4453,-2 z" color="#000" overflow="visible" style="isolation:auto;mix-blend-mode:normal"/></g></g></svg>